# xmcd CD database file
#
# Track frame offsets:
#	150
#	12012
#	25700
#	35267
#	47093
#	56998
#	70051
#	83670
#	95404
#	105908
#	117994
#	131184
#	144384
#	158166
#	169416
#	182934
#	194950
#	207569
#	220867
#	232634
#	243326
#	255239
#	267160
#	277992
#	290195
#
# Disc length: 4004 seconds
#
# Revision: 0
# Processed by: cddbd v1.5.2PL0 Copyright (c) Steve Scherf et al.
# Submitted via: CDex 1.51
#
DISCID=6a0fa219
DTITLE=Lightnin' Hopkins - The Essence Of Lightnin' Hopkins
DYEAR=2010
DGENRE=Blues
TTITLE0=European Blues
TTITLE1=Automobile Blues
TTITLE2=Henny Penny Blues
TTITLE3=Whiskey Blues
TTITLE4=Penitentiary Blues
TTITLE5=Goin' Back And Talk To Mama
TTITLE6=All I Got Is Gone
TTITLE7=Bad Luck And Trouble
TTITLE8=Everyday I Have The Blues
TTITLE9=Coffee Blues
TTITLE10=Praying Ground Blues
TTITLE11=Give Me Central
TTITLE12=Long Way From Texas
TTITLE13=I Wonder Why (Ellen)
TTITLE14=Dirty House Blues
TTITLE15=Everything Happens To Me
TTITLE16=Freight Train Blues
TTITLE17=Down To The River
TTITLE18=Gone With The Wind
TTITLE19=Nothin' But The Blues
TTITLE20=Remember Me
TTITLE21=Shine On Moon
TTITLE22=Lightnin' Special
TTITLE23=Sittin' Here Thinkin'
TTITLE24=Had A Gal Called Sal
EXTD=YEAR: 2010
EXTT0=
EXTT1=
EXTT2=
EXTT3=
EXTT4=
EXTT5=
EXTT6=
EXTT7=
EXTT8=
EXTT9=
EXTT10=
EXTT11=
EXTT12=
EXTT13=
EXTT14=
EXTT15=
EXTT16=
EXTT17=
EXTT18=
EXTT19=
EXTT20=
EXTT21=
EXTT22=
EXTT23=
EXTT24=
PLAYORDER=
